<mxfile host="Electron" modified="2023-11-13T22:47:33.027Z" agent="Mozilla/5.0 (Windows NT 10.0; Win64; x64) AppleWebKit/537.36 (KHTML, like Gecko) draw.io/22.0.2 Chrome/114.0.5735.289 Electron/25.8.4 Safari/537.36" etag="9I-b3Qvfv8643KFGyFYr" version="22.0.2" type="device">
  <diagram name="Página-1" id="W6izbr8vsnEv96tSZ8d3">
    <mxGraphModel dx="880" dy="1701" grid="1" gridSize="10" guides="1" tooltips="1" connect="1" arrows="1" fold="1" page="1" pageScale="1" pageWidth="827" pageHeight="1169" math="0" shadow="0">
      <root>
        <mxCell id="0" />
        <mxCell id="1" parent="0" />
        <mxCell id="yrLcCONhPHAIHU8TGo7k-82" value="" style="rounded=0;whiteSpace=wrap;html=1;" parent="1" vertex="1">
          <mxGeometry x="120" y="-120" width="720" height="1110" as="geometry" />
        </mxCell>
        <mxCell id="yrLcCONhPHAIHU8TGo7k-1" value="UC-001: Cadastrar Produto" style="ellipse;whiteSpace=wrap;html=1;fillColor=#d5e8d4;strokeColor=#82b366;" parent="1" vertex="1">
          <mxGeometry x="390" y="19" width="140" height="80" as="geometry" />
        </mxCell>
        <mxCell id="yrLcCONhPHAIHU8TGo7k-2" value="UC-002: Atualizar Produto" style="ellipse;whiteSpace=wrap;html=1;fillColor=#e1d5e7;strokeColor=#9673a6;" parent="1" vertex="1">
          <mxGeometry x="660" y="119" width="140" height="80" as="geometry" />
        </mxCell>
        <mxCell id="yrLcCONhPHAIHU8TGo7k-3" value="UC-003: Excluir Produto" style="ellipse;whiteSpace=wrap;html=1;fillColor=#e1d5e7;strokeColor=#9673a6;" parent="1" vertex="1">
          <mxGeometry x="660" y="229" width="140" height="80" as="geometry" />
        </mxCell>
        <mxCell id="yrLcCONhPHAIHU8TGo7k-4" value="UC-004: Visualizar Detalhes do Produto" style="ellipse;whiteSpace=wrap;html=1;fillColor=#e1d5e7;strokeColor=#9673a6;" parent="1" vertex="1">
          <mxGeometry x="660" y="339" width="140" height="80" as="geometry" />
        </mxCell>
        <mxCell id="yrLcCONhPHAIHU8TGo7k-5" value="UC-005: Visualizar Catálogo de Produtos" style="ellipse;whiteSpace=wrap;html=1;fillColor=#d5e8d4;strokeColor=#82b366;" parent="1" vertex="1">
          <mxGeometry x="390" y="229" width="140" height="80" as="geometry" />
        </mxCell>
        <mxCell id="yrLcCONhPHAIHU8TGo7k-6" value="UC-006: Adicionar Produto ao Carrinho" style="ellipse;whiteSpace=wrap;html=1;fillColor=#d5e8d4;strokeColor=#82b366;" parent="1" vertex="1">
          <mxGeometry x="390" y="339" width="140" height="80" as="geometry" />
        </mxCell>
        <mxCell id="yrLcCONhPHAIHU8TGo7k-7" value="UC-007: Remover Produto do Carrinho" style="ellipse;whiteSpace=wrap;html=1;fillColor=#e1d5e7;strokeColor=#9673a6;" parent="1" vertex="1">
          <mxGeometry x="660" y="450" width="140" height="80" as="geometry" />
        </mxCell>
        <mxCell id="yrLcCONhPHAIHU8TGo7k-17" value="UC-008: Visualizar Carrinho de Compras" style="ellipse;whiteSpace=wrap;html=1;fillColor=#e1d5e7;strokeColor=#9673a6;" parent="1" vertex="1">
          <mxGeometry x="660" y="549" width="140" height="80" as="geometry" />
        </mxCell>
        <mxCell id="yrLcCONhPHAIHU8TGo7k-18" value="UC-009: Iniciar Processo de Finalização" style="ellipse;whiteSpace=wrap;html=1;fillColor=#d5e8d4;strokeColor=#82b366;" parent="1" vertex="1">
          <mxGeometry x="200" y="499" width="140" height="80" as="geometry" />
        </mxCell>
        <mxCell id="yrLcCONhPHAIHU8TGo7k-20" value="UC-010: Confirmar Método de Pagamento" style="ellipse;whiteSpace=wrap;html=1;fillColor=#e1d5e7;strokeColor=#9673a6;" parent="1" vertex="1">
          <mxGeometry x="440" y="610" width="140" height="80" as="geometry" />
        </mxCell>
        <mxCell id="yrLcCONhPHAIHU8TGo7k-78" style="edgeStyle=orthogonalEdgeStyle;rounded=0;orthogonalLoop=1;jettySize=auto;html=1;entryX=0;entryY=0.5;entryDx=0;entryDy=0;endArrow=open;endFill=0;" parent="1" source="yrLcCONhPHAIHU8TGo7k-23" target="yrLcCONhPHAIHU8TGo7k-76" edge="1">
          <mxGeometry relative="1" as="geometry" />
        </mxCell>
        <mxCell id="w_v6uISy2CoZy6Q2dgt_-1" value="&amp;lt;&amp;lt;include&amp;gt;&amp;gt;" style="edgeLabel;html=1;align=center;verticalAlign=middle;resizable=0;points=[];" parent="yrLcCONhPHAIHU8TGo7k-78" vertex="1" connectable="0">
          <mxGeometry x="-0.275" y="3" relative="1" as="geometry">
            <mxPoint x="8" as="offset" />
          </mxGeometry>
        </mxCell>
        <mxCell id="yrLcCONhPHAIHU8TGo7k-23" value="UC-011: Efetuar Pagamento" style="ellipse;whiteSpace=wrap;html=1;fillColor=#d5e8d4;strokeColor=#82b366;" parent="1" vertex="1">
          <mxGeometry x="200" y="750" width="140" height="80" as="geometry" />
        </mxCell>
        <mxCell id="yrLcCONhPHAIHU8TGo7k-24" value="UC-013: Confirmar Pagamento" style="ellipse;whiteSpace=wrap;html=1;fillColor=#e1d5e7;strokeColor=#9673a6;" parent="1" vertex="1">
          <mxGeometry x="200" y="880" width="140" height="80" as="geometry" />
        </mxCell>
        <mxCell id="yrLcCONhPHAIHU8TGo7k-31" value="" style="endArrow=open;html=1;rounded=0;exitX=1;exitY=0.5;exitDx=0;exitDy=0;entryX=0;entryY=0.5;entryDx=0;entryDy=0;dashed=1;endFill=0;" parent="1" source="yrLcCONhPHAIHU8TGo7k-1" target="yrLcCONhPHAIHU8TGo7k-2" edge="1">
          <mxGeometry width="50" height="50" relative="1" as="geometry">
            <mxPoint x="530" y="269" as="sourcePoint" />
            <mxPoint x="580" y="219" as="targetPoint" />
          </mxGeometry>
        </mxCell>
        <mxCell id="yrLcCONhPHAIHU8TGo7k-34" value="&amp;lt;&amp;lt;include&amp;gt;&amp;gt;" style="edgeLabel;html=1;align=center;verticalAlign=middle;resizable=0;points=[];" parent="yrLcCONhPHAIHU8TGo7k-31" vertex="1" connectable="0">
          <mxGeometry x="-0.3619" y="1" relative="1" as="geometry">
            <mxPoint x="38" y="1" as="offset" />
          </mxGeometry>
        </mxCell>
        <mxCell id="yrLcCONhPHAIHU8TGo7k-32" value="" style="endArrow=open;html=1;rounded=0;exitX=1;exitY=0.5;exitDx=0;exitDy=0;entryX=0.019;entryY=0.329;entryDx=0;entryDy=0;dashed=1;endFill=0;entryPerimeter=0;" parent="1" source="yrLcCONhPHAIHU8TGo7k-1" target="yrLcCONhPHAIHU8TGo7k-3" edge="1">
          <mxGeometry width="50" height="50" relative="1" as="geometry">
            <mxPoint x="540" y="169" as="sourcePoint" />
            <mxPoint x="630" y="169" as="targetPoint" />
          </mxGeometry>
        </mxCell>
        <mxCell id="yrLcCONhPHAIHU8TGo7k-35" value="&amp;lt;&amp;lt;include&amp;gt;&amp;gt;" style="edgeLabel;html=1;align=center;verticalAlign=middle;resizable=0;points=[];" parent="yrLcCONhPHAIHU8TGo7k-32" vertex="1" connectable="0">
          <mxGeometry x="0.4891" y="-1" relative="1" as="geometry">
            <mxPoint as="offset" />
          </mxGeometry>
        </mxCell>
        <mxCell id="yrLcCONhPHAIHU8TGo7k-33" value="" style="endArrow=open;html=1;rounded=0;entryX=0.013;entryY=0.382;entryDx=0;entryDy=0;dashed=1;endFill=0;entryPerimeter=0;exitX=1;exitY=0.5;exitDx=0;exitDy=0;" parent="1" source="yrLcCONhPHAIHU8TGo7k-1" target="yrLcCONhPHAIHU8TGo7k-4" edge="1">
          <mxGeometry width="50" height="50" relative="1" as="geometry">
            <mxPoint x="530" y="159" as="sourcePoint" />
            <mxPoint x="633" y="265" as="targetPoint" />
          </mxGeometry>
        </mxCell>
        <mxCell id="yrLcCONhPHAIHU8TGo7k-36" value="&amp;lt;&amp;lt;include&amp;gt;&amp;gt;" style="edgeLabel;html=1;align=center;verticalAlign=middle;resizable=0;points=[];" parent="yrLcCONhPHAIHU8TGo7k-33" vertex="1" connectable="0">
          <mxGeometry x="0.6816" y="-1" relative="1" as="geometry">
            <mxPoint as="offset" />
          </mxGeometry>
        </mxCell>
        <mxCell id="yrLcCONhPHAIHU8TGo7k-39" value="" style="endArrow=open;html=1;rounded=0;entryX=0.002;entryY=0.4;entryDx=0;entryDy=0;dashed=1;endFill=0;entryPerimeter=0;" parent="1" target="yrLcCONhPHAIHU8TGo7k-17" edge="1">
          <mxGeometry width="50" height="50" relative="1" as="geometry">
            <mxPoint x="530" y="389" as="sourcePoint" />
            <mxPoint x="661" y="486" as="targetPoint" />
          </mxGeometry>
        </mxCell>
        <mxCell id="yrLcCONhPHAIHU8TGo7k-40" value="&amp;lt;&amp;lt;include&amp;gt;&amp;gt;" style="edgeLabel;html=1;align=center;verticalAlign=middle;resizable=0;points=[];" parent="yrLcCONhPHAIHU8TGo7k-39" vertex="1" connectable="0">
          <mxGeometry x="0.6816" y="-1" relative="1" as="geometry">
            <mxPoint x="2" as="offset" />
          </mxGeometry>
        </mxCell>
        <mxCell id="yrLcCONhPHAIHU8TGo7k-41" value="" style="endArrow=open;html=1;rounded=0;dashed=1;endFill=0;entryX=0.002;entryY=0.431;entryDx=0;entryDy=0;entryPerimeter=0;" parent="1" target="yrLcCONhPHAIHU8TGo7k-7" edge="1">
          <mxGeometry width="50" height="50" relative="1" as="geometry">
            <mxPoint x="530" y="389" as="sourcePoint" />
            <mxPoint x="540" y="619" as="targetPoint" />
          </mxGeometry>
        </mxCell>
        <mxCell id="yrLcCONhPHAIHU8TGo7k-42" value="&amp;lt;&amp;lt;include&amp;gt;&amp;gt;" style="edgeLabel;html=1;align=center;verticalAlign=middle;resizable=0;points=[];" parent="yrLcCONhPHAIHU8TGo7k-41" vertex="1" connectable="0">
          <mxGeometry x="0.6816" y="-1" relative="1" as="geometry">
            <mxPoint x="-9" y="-10" as="offset" />
          </mxGeometry>
        </mxCell>
        <mxCell id="yrLcCONhPHAIHU8TGo7k-45" value="" style="endArrow=open;html=1;rounded=0;dashed=1;endFill=0;entryX=0;entryY=0.5;entryDx=0;entryDy=0;" parent="1" target="yrLcCONhPHAIHU8TGo7k-20" edge="1">
          <mxGeometry width="50" height="50" relative="1" as="geometry">
            <mxPoint x="340" y="549" as="sourcePoint" />
            <mxPoint x="426" y="597" as="targetPoint" />
          </mxGeometry>
        </mxCell>
        <mxCell id="9QgJL9fJP26Fvy3BkaIX-1" value="&amp;lt;&amp;lt;include&amp;gt;&amp;gt;" style="edgeLabel;html=1;align=center;verticalAlign=middle;resizable=0;points=[];" parent="yrLcCONhPHAIHU8TGo7k-45" vertex="1" connectable="0">
          <mxGeometry x="0.174" y="2" relative="1" as="geometry">
            <mxPoint as="offset" />
          </mxGeometry>
        </mxCell>
        <mxCell id="yrLcCONhPHAIHU8TGo7k-55" value="" style="endArrow=open;html=1;rounded=0;exitX=0.426;exitY=1.013;exitDx=0;exitDy=0;endFill=0;entryX=1;entryY=0.387;entryDx=0;entryDy=0;entryPerimeter=0;exitPerimeter=0;" parent="1" source="yrLcCONhPHAIHU8TGo7k-76" target="yrLcCONhPHAIHU8TGo7k-24" edge="1">
          <mxGeometry width="50" height="50" relative="1" as="geometry">
            <mxPoint x="200" y="750" as="sourcePoint" />
            <mxPoint x="160" y="850" as="targetPoint" />
          </mxGeometry>
        </mxCell>
        <mxCell id="yrLcCONhPHAIHU8TGo7k-81" value="&amp;lt;&amp;lt;include&amp;gt;&amp;gt;" style="edgeLabel;html=1;align=center;verticalAlign=middle;resizable=0;points=[];" parent="yrLcCONhPHAIHU8TGo7k-55" vertex="1" connectable="0">
          <mxGeometry x="0.2588" y="1" relative="1" as="geometry">
            <mxPoint as="offset" />
          </mxGeometry>
        </mxCell>
        <mxCell id="yrLcCONhPHAIHU8TGo7k-58" value="Admin" style="shape=umlActor;verticalLabelPosition=bottom;verticalAlign=top;html=1;outlineConnect=0;" parent="1" vertex="1">
          <mxGeometry x="50" y="199" width="30" height="60" as="geometry" />
        </mxCell>
        <mxCell id="yrLcCONhPHAIHU8TGo7k-60" value="" style="endArrow=none;html=1;rounded=0;exitX=1;exitY=0.3333333333333333;exitDx=0;exitDy=0;exitPerimeter=0;entryX=0.007;entryY=0.593;entryDx=0;entryDy=0;entryPerimeter=0;" parent="1" source="yrLcCONhPHAIHU8TGo7k-58" target="yrLcCONhPHAIHU8TGo7k-1" edge="1">
          <mxGeometry width="50" height="50" relative="1" as="geometry">
            <mxPoint x="510" y="339" as="sourcePoint" />
            <mxPoint x="560" y="289" as="targetPoint" />
          </mxGeometry>
        </mxCell>
        <mxCell id="yrLcCONhPHAIHU8TGo7k-61" value="" style="endArrow=none;html=1;rounded=0;entryX=0;entryY=0.5;entryDx=0;entryDy=0;" parent="1" target="yrLcCONhPHAIHU8TGo7k-5" edge="1">
          <mxGeometry width="50" height="50" relative="1" as="geometry">
            <mxPoint x="80" y="220" as="sourcePoint" />
            <mxPoint x="401" y="176" as="targetPoint" />
          </mxGeometry>
        </mxCell>
        <mxCell id="yrLcCONhPHAIHU8TGo7k-67" value="Cliente" style="shape=umlActor;verticalLabelPosition=bottom;verticalAlign=top;html=1;outlineConnect=0;" parent="1" vertex="1">
          <mxGeometry x="50" y="349" width="30" height="60" as="geometry" />
        </mxCell>
        <mxCell id="yrLcCONhPHAIHU8TGo7k-68" value="" style="endArrow=none;html=1;rounded=0;entryX=0;entryY=0.5;entryDx=0;entryDy=0;exitX=1;exitY=0.3333333333333333;exitDx=0;exitDy=0;exitPerimeter=0;" parent="1" source="yrLcCONhPHAIHU8TGo7k-67" target="yrLcCONhPHAIHU8TGo7k-5" edge="1">
          <mxGeometry width="50" height="50" relative="1" as="geometry">
            <mxPoint x="260" y="239" as="sourcePoint" />
            <mxPoint x="400" y="279" as="targetPoint" />
          </mxGeometry>
        </mxCell>
        <mxCell id="yrLcCONhPHAIHU8TGo7k-69" value="" style="endArrow=none;html=1;rounded=0;entryX=0;entryY=0.5;entryDx=0;entryDy=0;" parent="1" target="yrLcCONhPHAIHU8TGo7k-6" edge="1">
          <mxGeometry width="50" height="50" relative="1" as="geometry">
            <mxPoint x="80" y="369" as="sourcePoint" />
            <mxPoint x="400" y="279" as="targetPoint" />
          </mxGeometry>
        </mxCell>
        <mxCell id="yrLcCONhPHAIHU8TGo7k-70" value="" style="endArrow=none;html=1;rounded=0;entryX=0.059;entryY=0.244;entryDx=0;entryDy=0;entryPerimeter=0;" parent="1" target="yrLcCONhPHAIHU8TGo7k-18" edge="1">
          <mxGeometry width="50" height="50" relative="1" as="geometry">
            <mxPoint x="80" y="369" as="sourcePoint" />
            <mxPoint x="400" y="389" as="targetPoint" />
          </mxGeometry>
        </mxCell>
        <mxCell id="yrLcCONhPHAIHU8TGo7k-71" value="" style="endArrow=none;html=1;rounded=0;entryX=0;entryY=0;entryDx=0;entryDy=0;" parent="1" target="yrLcCONhPHAIHU8TGo7k-23" edge="1">
          <mxGeometry width="50" height="50" relative="1" as="geometry">
            <mxPoint x="80" y="370" as="sourcePoint" />
            <mxPoint x="21" y="699" as="targetPoint" />
          </mxGeometry>
        </mxCell>
        <mxCell id="yrLcCONhPHAIHU8TGo7k-72" value="UC-014: Gerenciar Histórico de Pedidos" style="ellipse;whiteSpace=wrap;html=1;fillColor=#d5e8d4;strokeColor=#82b366;" parent="1" vertex="1">
          <mxGeometry x="390" y="119" width="140" height="80" as="geometry" />
        </mxCell>
        <mxCell id="yrLcCONhPHAIHU8TGo7k-73" value="" style="endArrow=none;html=1;rounded=0;entryX=0;entryY=0.5;entryDx=0;entryDy=0;" parent="1" target="yrLcCONhPHAIHU8TGo7k-72" edge="1">
          <mxGeometry width="50" height="50" relative="1" as="geometry">
            <mxPoint x="80" y="220" as="sourcePoint" />
            <mxPoint x="401" y="76" as="targetPoint" />
          </mxGeometry>
        </mxCell>
        <mxCell id="yrLcCONhPHAIHU8TGo7k-80" style="edgeStyle=orthogonalEdgeStyle;rounded=0;orthogonalLoop=1;jettySize=auto;html=1;entryX=1;entryY=0.5;entryDx=0;entryDy=0;endArrow=none;endFill=0;" parent="1" source="yrLcCONhPHAIHU8TGo7k-75" target="yrLcCONhPHAIHU8TGo7k-76" edge="1">
          <mxGeometry relative="1" as="geometry" />
        </mxCell>
        <mxCell id="yrLcCONhPHAIHU8TGo7k-75" value="Banco" style="shape=umlActor;verticalLabelPosition=bottom;verticalAlign=top;html=1;outlineConnect=0;" parent="1" vertex="1">
          <mxGeometry x="885" y="760" width="30" height="60" as="geometry" />
        </mxCell>
        <mxCell id="yrLcCONhPHAIHU8TGo7k-76" value="UC-012: Validar pagamento" style="ellipse;whiteSpace=wrap;html=1;fillColor=#f8cecc;strokeColor=#b85450;" parent="1" vertex="1">
          <mxGeometry x="440" y="750" width="140" height="80" as="geometry" />
        </mxCell>
        <mxCell id="yrLcCONhPHAIHU8TGo7k-85" value="&lt;font style=&quot;font-size: 24px;&quot;&gt;&lt;b&gt;Sistema de pedidos&lt;/b&gt;&lt;/font&gt;" style="text;html=1;strokeColor=#666666;fillColor=#f5f5f5;align=center;verticalAlign=middle;whiteSpace=wrap;rounded=0;fontColor=#333333;" parent="1" vertex="1">
          <mxGeometry x="595" y="-112" width="237" height="30" as="geometry" />
        </mxCell>
        <mxCell id="tIWi5p3lr-2s4Q_048i9-1" value="UC-015: Logar no sistema" style="ellipse;whiteSpace=wrap;html=1;fillColor=#d5e8d4;strokeColor=#82b366;" parent="1" vertex="1">
          <mxGeometry x="390" y="-82" width="140" height="80" as="geometry" />
        </mxCell>
        <mxCell id="tIWi5p3lr-2s4Q_048i9-2" value="" style="endArrow=none;html=1;rounded=0;entryX=0;entryY=0.5;entryDx=0;entryDy=0;" parent="1" target="tIWi5p3lr-2s4Q_048i9-1" edge="1">
          <mxGeometry width="50" height="50" relative="1" as="geometry">
            <mxPoint x="80" y="220" as="sourcePoint" />
            <mxPoint x="401" y="76" as="targetPoint" />
          </mxGeometry>
        </mxCell>
      </root>
    </mxGraphModel>
  </diagram>
</mxfile>
